<svg id="Livello_1" data-name="Livello 1" xmlns="http://www.w3.org/2000/svg" viewBox="0 0 512 512"><path d="M79.65,92a16.07,16.07,0,0,1,4.64-9.28,11.84,11.84,0,0,1,8.51-3.87L420,79.65A11,11,0,0,1,432.35,92l.77,327.17a11.84,11.84,0,0,1-3.87,8.51,16.07,16.07,0,0,1-9.28,4.64l-11.6-.78a11.86,11.86,0,0,1-8.51-3.86,16,16,0,0,1-4.64-9.29L396,142.3,105.18,433.12a13.07,13.07,0,0,1-18.57,0l-7.73-7.73a13.07,13.07,0,0,1,0-18.57L369.7,116l-276.12.77a16,16,0,0,1-9.29-4.64,11.86,11.86,0,0,1-3.86-8.51Z"/></svg>