<?xml version="1.0" encoding="utf-8"?>
<!-- Generator: Adobe Illustrator 24.0.1, SVG Export Plug-In . SVG Version: 6.00 Build 0)  -->
<svg version="1.1" id="Livello_1" xmlns="http://www.w3.org/2000/svg" xmlns:xlink="http://www.w3.org/1999/xlink" x="0px" y="0px"
	 viewBox="0 0 10 10" style="enable-background:new 0 0 10 10;" xml:space="preserve">
<style type="text/css">
	.st0{fill:#FFFFFF;}
</style>
<path class="st0" d="M4.8,0.1C4.9,0,4.9,0,5,0c0.1,0,0.1,0,0.2,0.1l4.7,4.7C10,4.9,10,5,10,5.1c0,0,0,0,0,0L5.2,9.9
	C5.2,10,5.1,10,5,10c-0.1,0-0.1,0-0.2-0.1L4.7,9.7c0,0-0.1-0.1-0.1-0.2c0-0.1,0-0.1,0.1-0.2l4-4H0.3C0.1,5.4,0,5.3,0,5.1
	c0,0,0,0,0,0V4.9c0-0.1,0.1-0.3,0.3-0.3c0,0,0,0,0,0h8.4l-4-4c0-0.1-0.1-0.1-0.1-0.2c0-0.1,0-0.1,0.1-0.2L4.8,0.1z"/>
</svg>
