<svg id="Livello_1" data-name="Livello 1" xmlns="http://www.w3.org/2000/svg" viewBox="0 0 512 512"><path d="M264.75,384l231.89-230.8a11.81,11.81,0,0,0,3.28-8.75,16,16,0,0,0-3.28-9.85l-8.75-7.65a11.82,11.82,0,0,0-8.75-3.29,16.14,16.14,0,0,0-6.33,1.25,16.68,16.68,0,0,0-3.52,2L327.83,269.19,274.6,322.73v-.55l-9.85,9.8a10.93,10.93,0,0,1-17.5,0l-9.85-9.8v.55l-53.23-53.54L42.71,126.93a16.68,16.68,0,0,0-3.52-2,16.14,16.14,0,0,0-6.33-1.25,11.82,11.82,0,0,0-8.75,3.29l-8.75,7.65a16,16,0,0,0-3.28,9.85,11.81,11.81,0,0,0,3.28,8.75L247.25,384a10.93,10.93,0,0,0,17.5,0Z"/></svg>