<svg id="Livello_1" data-name="Livello 1" xmlns="http://www.w3.org/2000/svg" viewBox="0 0 512 512"><path d="M128,264.75l230.8,231.89a11.81,11.81,0,0,0,8.75,3.28,16,16,0,0,0,9.85-3.28l7.65-8.75a11.82,11.82,0,0,0,3.29-8.75,16.14,16.14,0,0,0-1.25-6.33,16.68,16.68,0,0,0-2-3.52L242.81,327.83,189.27,274.6h.55l-9.8-9.85a10.93,10.93,0,0,1,0-17.5l9.8-9.85h-.55l53.54-53.23L385.07,42.71a16.68,16.68,0,0,0,2-3.52,16.14,16.14,0,0,0,1.25-6.33,11.82,11.82,0,0,0-3.29-8.75l-7.65-8.75a16,16,0,0,0-9.85-3.28,11.81,11.81,0,0,0-8.75,3.28L128,247.25a10.93,10.93,0,0,0,0,17.5Z"/></svg>