<svg id="Livello_1" data-name="Livello 1" xmlns="http://www.w3.org/2000/svg" viewBox="0 0 512 512"><path d="M247.25,128,15.36,358.82a11.81,11.81,0,0,0-3.28,8.75,16,16,0,0,0,3.28,9.85l8.75,7.65a11.82,11.82,0,0,0,8.75,3.29,16.14,16.14,0,0,0,6.33-1.25,16.68,16.68,0,0,0,3.52-2L184.17,242.81l53.23-53.54v.55l9.85-9.8a10.93,10.93,0,0,1,17.5,0l9.85,9.8v-.55l53.23,53.54L469.29,385.07a16.68,16.68,0,0,0,3.52,2,16.14,16.14,0,0,0,6.33,1.25,11.82,11.82,0,0,0,8.75-3.29l8.75-7.65a16,16,0,0,0,3.28-9.85,11.81,11.81,0,0,0-3.28-8.75L264.75,128a10.93,10.93,0,0,0-17.5,0Z"/></svg>