<svg id="Livello_1" data-name="Livello 1" xmlns="http://www.w3.org/2000/svg" viewBox="0 0 512 512"><path d="M208.27,288.28H64A14.07,14.07,0,0,1,49.92,274.2V237.81A14.07,14.07,0,0,1,64,223.74H208.27a14.08,14.08,0,0,0,14.07-14.08V51.55a14.07,14.07,0,0,1,14.08-14.07h39.16a14.07,14.07,0,0,1,14.08,14.07V209.66a14.08,14.08,0,0,0,14.07,14.08H448a14.07,14.07,0,0,1,14.07,14.07V274.2A14.07,14.07,0,0,1,448,288.28H303.73a14.07,14.07,0,0,0-14.07,14.07v158.1a14.07,14.07,0,0,1-14.08,14.07H236.42a14.07,14.07,0,0,1-14.08-14.07V302.35A14.07,14.07,0,0,0,208.27,288.28Z"/></svg>