<?xml version="1.0" encoding="utf-8"?>
<!-- Generator: Adobe Illustrator 25.0.0, SVG Export Plug-In . SVG Version: 6.00 Build 0)  -->
<svg version="1.1" id="Livello_1" xmlns="http://www.w3.org/2000/svg" xmlns:xlink="http://www.w3.org/1999/xlink" x="0px" y="0px"
	 viewBox="0 0 208 252" style="enable-background:new 0 0 208 252;" xml:space="preserve">
<style type="text/css">
	.st0{fill:#F39600;}
	.st1{fill:#FFFFFF;}
	.st2{fill:#00416B;}
</style>
<path class="st0" d="M85.3,165.6c-24.5-7.6-42.2-30.4-42.2-57.4c0-27.9,18.5-51.3,44.1-58.1c3.3-0.5,5.8-2.7,5.8-5.5l0-2.3
	c0,0,0-13.3,0-21.8l0-1.1c0-2.8-2.3-5.2-5.2-5.2l-1,0.1c-44.4,7.5-77.7,46.4-77.7,93c0,45.9,32.8,84.1,76.2,92.4l0,0.3
	c0,0,0,32.1,0,32.1l0,2.6c0,2.9,2.3,5.2,5.2,5.2h2.7c8,0,19.1,0,19.1,0h2.3c2.9,0,5.2-2.3,5.2-5.2l0-2.6l0-32.1
	c44.1-7.8,77.6-46.3,77.6-92.7c0-46.7-34.2-85.6-78.8-93l-1.3-0.1c-2.9,0-5.2,2.3-5.2,5.2l0,1.6V43l0,1.7c0,2.8,2.1,4.7,5.2,5.2
	l1.9,0.5c25.5,6.9,44.2,30.3,44.2,57.9c0,27.4-18.4,50.6-43.6,57.8c0,0,0-37.5,0-53.1l0-1.5c0-2.8-2.3-5.2-5.2-5.2h-1.9H92.3h-1.8
	c-2.9,0-5.2,2.3-5.2,5.2v1.8C85.3,128.9,85.3,165.6,85.3,165.6"/>
</svg>
