<?xml version="1.0" encoding="utf-8"?>
<!-- Generator: Adobe Illustrator 24.0.1, SVG Export Plug-In . SVG Version: 6.00 Build 0)  -->
<svg version="1.1" id="Livello_1" xmlns="http://www.w3.org/2000/svg" xmlns:xlink="http://www.w3.org/1999/xlink" x="0px" y="0px"
	 viewBox="0 0 100 23.3" style="enable-background:new 0 0 100 23.3;" xml:space="preserve">
<style type="text/css">
	.st0{fill:#FFFFFF;}
	.st1{fill:#F39600;}
</style>
<g>
	<g>
		<path class="st0" d="M31.9,0c5,0,7.8,1.9,7.8,7c0,2.7-1.3,4.1-1.9,4.7h1.5c0.5,0,0.9,0.4,0.9,0.9v0.8c0,0.5-0.4,0.9-0.9,0.9h-7.5
			c-5,0-7.8-2.1-7.8-7.2S26.9,0,31.9,0z M27.8,7.1c0,2.9,1.2,4.5,4.2,4.5s4.2-1.9,4.2-4.7s-1.2-4.3-4.2-4.3
			C28.9,2.6,27.8,4.3,27.8,7.1z"/>
		<path class="st0" d="M49.3,11.5c1.8,0,2.6-0.9,2.6-2.8V1.2c0-0.5,0.4-0.9,0.9-0.9h1.8c0.5,0,0.9,0.4,0.9,0.9v7.5
			c0,3.5-2.1,5.6-6.1,5.6h-1.8c-4.1,0-6.1-2.1-6.1-5.6V1.2c0-0.5,0.4-0.9,0.9-0.9h1.8c0.5,0,0.9,0.4,0.9,0.9v7.5
			c0,1.9,0.8,2.8,2.6,2.8H49.3z"/>
		<path class="st0" d="M58.1,1.2c0-0.5,0.4-0.9,0.9-0.9h1.8c0.5,0,0.9,0.4,0.9,0.9v12.1c0,0.5-0.4,0.9-0.9,0.9H59
			c-0.5,0-0.9-0.4-0.9-0.9V1.2z"/>
		<path class="st0" d="M65.4,14.2c-0.5,0-0.9-0.4-0.9-0.9V1.2c0-0.5,0.4-0.9,0.9-0.9h2.9c0.5,0,1,0.5,1.3,0.9l5.9,9v-9
			c0-0.5,0.4-0.9,0.9-0.9h1.7c0.5,0,0.9,0.4,0.9,0.9v12.1c0,0.5-0.4,0.9-0.9,0.9h-3.2c-0.5,0-1.1-0.4-1.4-0.9L68.1,5v8.3
			c0,0.5-0.4,0.9-0.9,0.9L65.4,14.2L65.4,14.2z"/>
		<path class="st0" d="M93.8,0.3c0.5,0,0.9,0.4,0.9,0.9v0.9c0,0.5-0.4,0.9-0.9,0.9h-4.3v10.3c0,0.5-0.4,0.9-0.9,0.9h-1.8
			c-0.5,0-0.9-0.4-0.9-0.9V3h-4.3c-0.5,0-0.9-0.4-0.9-0.9V1.2c0-0.5,0.4-0.9,0.9-0.9L93.8,0.3L93.8,0.3z"/>
		<path class="st0" d="M96.3,1.2c0-0.5,0.4-0.9,0.9-0.9H99c0.5,0,0.9,0.4,0.9,0.9v12.1c0,0.5-0.4,0.9-0.9,0.9h-1.8
			c-0.5,0-0.9-0.4-0.9-0.9V1.2z"/>
	</g>
	<path class="st1" d="M7.8,15.7c-2.5-0.8-4.3-3.1-4.3-5.8C3.5,7,5.3,4.6,8,4c0.3-0.1,0.6-0.3,0.6-0.6V3.2c0,0,0-1.4,0-2.2V0.8
		c0-0.3-0.2-0.5-0.5-0.5l-0.1,0C3.4,1.1,0,5,0,9.8c0,4.7,3.3,8.6,7.8,9.4v0v3.3v0.3c0,0.3,0.2,0.5,0.5,0.5h0.3c0.8,0,1.9,0,1.9,0
		h0.2c0.3,0,0.5-0.2,0.5-0.5v-0.3v-3.3c4.5-0.8,7.9-4.7,7.9-9.4c0-4.8-3.5-8.7-8-9.5l-0.1,0c-0.3,0-0.5,0.2-0.5,0.5V1v2.2v0.2
		c0,0.3,0.2,0.5,0.5,0.5L11.2,4c2.6,0.7,4.5,3.1,4.5,5.9c0,2.8-1.9,5.2-4.4,5.9c0,0,0-3.8,0-5.4v-0.2c0-0.3-0.2-0.5-0.5-0.5h-0.2
		H8.5H8.3c-0.3,0-0.5,0.2-0.5,0.5v0.2C7.8,12,7.8,15.7,7.8,15.7"/>
	<g>
		<path class="st0" d="M24.2,19.5h1c0.5,0,0.8,0.1,1,0.2c0.2,0.1,0.3,0.4,0.3,0.7c0,0.2-0.1,0.4-0.2,0.5c-0.1,0.1-0.3,0.2-0.5,0.3v0
			c0.5,0.1,0.8,0.4,0.8,0.8c0,0.3-0.1,0.5-0.3,0.7c-0.2,0.2-0.5,0.3-0.9,0.3h-1.2L24.2,19.5L24.2,19.5z M24.6,21h0.7
			c0.3,0,0.5,0,0.6-0.1c0.1-0.1,0.2-0.2,0.2-0.5c0-0.2-0.1-0.3-0.2-0.4c-0.1-0.1-0.4-0.1-0.7-0.1h-0.6L24.6,21L24.6,21z M24.6,21.3
			v1.3h0.7c0.3,0,0.5-0.1,0.6-0.2c0.1-0.1,0.2-0.3,0.2-0.5c0-0.2-0.1-0.4-0.2-0.5c-0.1-0.1-0.4-0.2-0.7-0.2H24.6z"/>
		<path class="st0" d="M32.1,21.2c0,0.6-0.1,1-0.4,1.3C31.4,22.9,31,23,30.5,23s-0.9-0.2-1.2-0.5c-0.3-0.3-0.4-0.8-0.4-1.3
			c0-0.6,0.1-1,0.4-1.3c0.3-0.3,0.7-0.5,1.2-0.5c0.5,0,0.9,0.2,1.2,0.5C31.9,20.2,32.1,20.7,32.1,21.2z M29.3,21.2
			c0,0.5,0.1,0.8,0.3,1.1c0.2,0.2,0.5,0.4,0.9,0.4c0.4,0,0.7-0.1,0.9-0.4c0.2-0.2,0.3-0.6,0.3-1.1c0-0.5-0.1-0.8-0.3-1.1
			c-0.2-0.2-0.5-0.4-0.9-0.4c-0.4,0-0.7,0.1-0.9,0.4C29.4,20.4,29.3,20.8,29.3,21.2z"/>
		<path class="st0" d="M35.6,23h-0.4v-3.1h-1.1v-0.4h2.6v0.4h-1.1L35.6,23L35.6,23z"/>
		<path class="st0" d="M40,23h-0.4v-3.1h-1.1v-0.4h2.6v0.4H40L40,23L40,23z"/>
		<path class="st0" d="M43.4,23v-3.5h0.4v3.1h1.5V23H43.4L43.4,23z"/>
		<path class="st0" d="M47.6,23v-3.5H48V23H47.6z"/>
		<path class="st0" d="M53.4,23h-0.5L51,20.1h0c0,0.3,0,0.7,0,0.9v2h-0.4v-3.5h0.5l1.9,2.9h0c0,0,0-0.2,0-0.4s0-0.4,0-0.5v-2h0.4
			L53.4,23L53.4,23z"/>
		<path class="st0" d="M57.6,21.2h1.2v1.7c-0.2,0.1-0.4,0.1-0.6,0.1c-0.2,0-0.4,0-0.7,0c-0.5,0-0.9-0.2-1.2-0.5
			c-0.3-0.3-0.4-0.8-0.4-1.3c0-0.4,0.1-0.7,0.2-1c0.1-0.3,0.4-0.5,0.6-0.6c0.3-0.1,0.6-0.2,1-0.2c0.4,0,0.7,0.1,1,0.2L58.5,20
			c-0.3-0.1-0.6-0.2-0.9-0.2c-0.4,0-0.8,0.1-1,0.4c-0.2,0.3-0.4,0.6-0.4,1c0,0.5,0.1,0.8,0.3,1.1c0.2,0.2,0.6,0.4,1,0.4
			c0.2,0,0.5,0,0.7-0.1v-1.1h-0.8L57.6,21.2L57.6,21.2z"/>
		<path class="st0" d="M65.8,23l-1.2-3.1h0c0,0.2,0,0.5,0,0.9V23h-0.4v-3.5h0.6l1.1,2.9h0l1.1-2.9h0.6V23h-0.4v-2.2
			c0-0.3,0-0.5,0-0.8h0L66.1,23H65.8z"/>
		<path class="st0" d="M72.5,23l-0.4-1.1h-1.4L70.3,23h-0.4l1.4-3.5h0.3l1.4,3.5H72.5z M72,21.5l-0.4-1.1c-0.1-0.1-0.1-0.3-0.2-0.5
			c0,0.2-0.1,0.3-0.2,0.5l-0.4,1.1H72z"/>
		<path class="st0" d="M76.6,19.8c-0.4,0-0.7,0.1-0.9,0.4s-0.3,0.6-0.3,1c0,0.5,0.1,0.8,0.3,1.1c0.2,0.2,0.5,0.4,0.9,0.4
			c0.2,0,0.5,0,0.8-0.1v0.4C77.2,23,76.9,23,76.5,23c-0.5,0-0.9-0.2-1.2-0.5c-0.3-0.3-0.4-0.8-0.4-1.3c0-0.4,0.1-0.7,0.2-0.9
			s0.3-0.5,0.6-0.6c0.3-0.1,0.5-0.2,0.9-0.2c0.4,0,0.7,0.1,1,0.2L77.4,20C77.1,19.9,76.9,19.8,76.6,19.8z"/>
		<path class="st0" d="M82.5,23h-0.4v-1.6h-1.8V23h-0.4v-3.5h0.4V21h1.8v-1.5h0.4V23z"/>
		<path class="st0" d="M85.2,23v-3.5h0.4V23H85.2z"/>
		<path class="st0" d="M91,23h-0.5l-1.9-2.9h0c0,0.3,0,0.7,0,0.9v2h-0.4v-3.5h0.5l1.9,2.9h0c0,0,0-0.2,0-0.4c0-0.2,0-0.4,0-0.5v-2
			H91L91,23L91,23z"/>
		<path class="st0" d="M95.6,23h-1.9v-3.5h1.9v0.4H94V21h1.4v0.4H94v1.3h1.5V23z"/>
		<path class="st0" d="M100,22.1c0,0.3-0.1,0.5-0.3,0.7c-0.2,0.2-0.5,0.3-0.9,0.3c-0.4,0-0.7-0.1-1-0.2v-0.4
			c0.1,0.1,0.3,0.1,0.5,0.1c0.2,0,0.3,0.1,0.5,0.1c0.3,0,0.5-0.1,0.6-0.2c0.1-0.1,0.2-0.2,0.2-0.4c0-0.1,0-0.2-0.1-0.3
			c-0.1-0.1-0.1-0.2-0.2-0.2c-0.1-0.1-0.3-0.1-0.5-0.2c-0.3-0.1-0.6-0.3-0.7-0.4c-0.1-0.2-0.2-0.4-0.2-0.6c0-0.3,0.1-0.5,0.3-0.6
			s0.5-0.2,0.8-0.2c0.3,0,0.7,0.1,1,0.2L99.8,20c-0.3-0.1-0.6-0.2-0.8-0.2c-0.2,0-0.4,0.1-0.5,0.1c-0.1,0.1-0.2,0.2-0.2,0.4
			c0,0.1,0,0.2,0.1,0.3c0,0.1,0.1,0.2,0.2,0.2c0.1,0.1,0.3,0.1,0.5,0.2c0.4,0.1,0.6,0.3,0.8,0.4C99.9,21.6,100,21.8,100,22.1z"/>
	</g>
</g>
</svg>
