<?xml version="1.0" encoding="utf-8"?>
<!-- Generator: Adobe Illustrator 24.0.1, SVG Export Plug-In . SVG Version: 6.00 Build 0)  -->
<svg version="1.1" id="Livello_1" xmlns="http://www.w3.org/2000/svg" xmlns:xlink="http://www.w3.org/1999/xlink" x="0px" y="0px"
	 viewBox="0 0 1000 252" style="enable-background:new 0 0 1000 252;" xml:space="preserve">
<style type="text/css">
	.st0{fill:#FFFFFF;}
</style>
<g>
	<path class="st0" d="M322.5,11.3c48.8,0,76.7,18.6,76.7,68.3c0,26.4-12.9,40-18.7,46.5h15.2c5.1,0,9,3.9,9,9v7.8c0,5.1-3.9,9-9,9
		h-73.2c-48.8,0-76.7-20.5-76.7-70.3S273.7,11.3,322.5,11.3z M281.7,81.5c0,28.3,11.5,44.5,40.8,44.5s40.8-18.2,40.8-46.5
		s-11.5-42.6-40.8-42.6C293.2,37,281.7,53.2,281.7,81.5z"/>
	<path class="st0" d="M492.7,124.7c17.4,0,25.2-9,25.2-27.7V23.2c0-5.1,4.1-9,9-9h17.8c5.1,0,9.2,3.9,9.2,9v73.6
		c0,34.5-20.3,54.8-60.1,54.8h-17.2c-39.8,0-60.1-20.3-60.1-54.8V23.2c0-5.1,4.1-9,9.2-9h17.8c4.9,0,9,3.9,9,9V97
		c0,18.7,7.8,27.7,25.2,27.7H492.7z"/>
	<path class="st0" d="M579.2,23.2c0-5.1,4.1-9,9-9H606c5.1,0,9.2,3.9,9.2,9v118.7c0,4.9-4.1,9-9.2,9h-17.8c-4.9,0-9-3.9-9-8.8V23.2z
		"/>
	<path class="st0" d="M651.5,150.8c-4.9,0-9-4.1-9-9V23.2c0-4.9,3.9-9,8.8-9h28.1c4.7,0,10.1,4.5,13.1,9l57.6,88.6V23
		c0-4.9,4.1-8.8,9-8.8h16.4c5.1,0,9,3.9,9,9v118.7c0,4.9-3.9,9-9,9h-31.6c-5.1,0-10.7-4.1-13.9-9l-52.7-81.8v81.8c0,4.9-4.1,9-9,9
		L651.5,150.8L651.5,150.8z"/>
	<path class="st0" d="M930,14.2c5.1,0,9,3.9,9,9v9c0,5.1-3.9,9-9,9h-42.6v100.9c0,4.9-4.1,8.8-9,8.8h-18c-4.9,0-9-3.9-9-8.8v-101
		H809c-5.1,0-9-3.9-9-9v-9c0-5.1,3.9-9,9-9h121V14.2z"/>
	<path class="st0" d="M954.6,23.2c0-5.1,4.1-9,9-9h17.8c5.1,0,9.2,3.9,9.2,9v118.7c0,4.9-4.1,9-9.2,9h-17.8c-4.9,0-9-3.9-9-8.8V23.2
		z"/>
</g>
<path class="st0" d="M85.3,165.6c-24.5-7.6-42.2-30.4-42.2-57.4c0-27.9,18.5-51.3,44.1-58.1c3.3-0.5,5.8-2.7,5.8-5.5v-2.3
	c0,0,0-13.3,0-21.8v-1.1c0-2.8-2.3-5.2-5.2-5.2l-1,0.1c-44.4,7.5-77.7,46.4-77.7,93c0,45.9,32.8,84.1,76.2,92.4v0.3v32.1v2.6
	c0,2.9,2.3,5.2,5.2,5.2h2.7c8,0,19.1,0,19.1,0h2.3c2.9,0,5.2-2.3,5.2-5.2v-2.6V200c44.1-7.8,77.6-46.3,77.6-92.7
	c0-46.7-34.2-85.6-78.8-93l-1.3-0.1c-2.9,0-5.2,2.3-5.2,5.2V21v22v1.7c0,2.8,2.1,4.7,5.2,5.2l1.9,0.5c25.5,6.9,44.2,30.3,44.2,57.9
	c0,27.4-18.4,50.6-43.6,57.8c0,0,0-37.5,0-53.1v-1.5c0-2.8-2.3-5.2-5.2-5.2h-1.9H92.3h-1.8c-2.9,0-5.2,2.3-5.2,5.2v1.8
	C85.3,128.9,85.3,165.6,85.3,165.6"/>
<g>
	<path class="st0" d="M246.8,202.8h9.7c4.5,0,7.8,0.7,9.9,2c2,1.4,3,3.5,3,6.4c0,2-0.6,3.7-1.7,5s-2.8,2.2-5,2.6v0.2
		c5.2,0.9,7.8,3.6,7.8,8.2c0,3.1-1,5.4-3.1,7.2c-2.1,1.7-5,2.6-8.7,2.6h-11.9L246.8,202.8L246.8,202.8z M250.8,217.5h6.6
		c2.8,0,4.8-0.4,6.1-1.3c1.2-0.9,1.8-2.4,1.8-4.5c0-1.9-0.7-3.3-2.1-4.2s-3.6-1.3-6.6-1.3h-5.9v11.3H250.8z M250.8,220.8v12.8h7.1
		c2.8,0,4.8-0.5,6.2-1.6c1.4-1.1,2.1-2.7,2.1-5c0-2.1-0.7-3.7-2.1-4.7s-3.6-1.5-6.5-1.5H250.8z"/>
	<path class="st0" d="M324.2,219.9c0,5.5-1.4,9.8-4.2,12.9c-2.8,3.1-6.6,4.7-11.6,4.7s-8.9-1.5-11.7-4.6c-2.7-3.1-4.1-7.4-4.1-13.1
		c0-5.6,1.4-9.9,4.1-13s6.6-4.6,11.7-4.6c4.9,0,8.8,1.6,11.5,4.7S324.2,214.4,324.2,219.9z M297,219.9c0,4.6,1,8.1,3,10.5
		s4.8,3.6,8.6,3.6c3.8,0,6.7-1.2,8.6-3.6c1.9-2.4,2.9-5.9,2.9-10.6c0-4.6-1-8.1-2.9-10.5s-4.8-3.6-8.6-3.6c-3.8,0-6.7,1.2-8.7,3.6
		C298,211.8,297,215.3,297,219.9z"/>
	<path class="st0" d="M359.1,237h-4v-30.7h-10.8v-3.5H370v3.5h-10.8V237H359.1z"/>
	<path class="st0" d="M402.2,237h-4v-30.7h-10.8v-3.5h25.7v3.5h-10.8V237H402.2z"/>
	<path class="st0" d="M434.8,237v-34.2h4v30.6h15.1v3.6L434.8,237L434.8,237z"/>
	<path class="st0" d="M476.4,237v-34.2h4V237H476.4z"/>
	<path class="st0" d="M533.1,237h-4.5l-18.7-28.7h-0.2c0.2,3.4,0.4,6.5,0.4,9.3V237h-3.7v-34.2h4.5l18.7,28.6h0.2
		c0-0.4-0.1-1.8-0.2-4.1c-0.1-2.3-0.1-3.9-0.1-4.9v-19.6h3.7L533.1,237L533.1,237z"/>
	<path class="st0" d="M574.2,219.1h11.6v16.6c-1.8,0.6-3.7,1-5.5,1.3c-1.9,0.3-4,0.4-6.5,0.4c-5.2,0-9.2-1.5-12.1-4.6
		c-2.9-3.1-4.3-7.4-4.3-13c0-3.6,0.7-6.7,2.1-9.4c1.4-2.7,3.5-4.7,6.2-6.1c2.7-1.4,5.8-2.1,9.4-2.1c3.7,0,7.1,0.7,10.2,2l-1.5,3.5
		c-3.1-1.3-6.1-2-8.9-2c-4.2,0-7.4,1.2-9.8,3.7c-2.3,2.5-3.5,5.9-3.5,10.3c0,4.6,1.1,8.1,3.4,10.5c2.3,2.4,5.6,3.6,9.9,3.6
		c2.4,0,4.7-0.3,7-0.8v-10.5h-7.7L574.2,219.1L574.2,219.1z"/>
	<path class="st0" d="M654.9,237l-11.6-30.3h-0.2c0.2,2.4,0.3,5.3,0.3,8.6V237h-3.7v-34.2h6l10.8,28.2h0.2l10.9-28.2h5.9V237h-4v-22
		c0-2.5,0.1-5.3,0.3-8.2h-0.2L658.1,237H654.9z"/>
	<path class="st0" d="M721.2,237l-4.3-10.9h-13.7L699,237h-4l13.5-34.4h3.3l13.5,34.4H721.2z M715.7,222.6l-4-10.6
		c-0.5-1.3-1-3-1.6-4.9c-0.3,1.5-0.8,3.1-1.5,4.9l-4,10.6H715.7z"/>
	<path class="st0" d="M761.4,205.9c-3.8,0-6.7,1.3-8.9,3.8s-3.3,5.9-3.3,10.3c0,4.5,1,7.9,3.1,10.4c2.1,2.4,5.1,3.7,9,3.7
		c2.4,0,5.1-0.4,8.2-1.3v3.5c-2.4,0.9-5.3,1.3-8.8,1.3c-5,0-8.9-1.5-11.7-4.6c-2.7-3.1-4.1-7.4-4.1-13c0-3.5,0.7-6.6,2-9.3
		s3.2-4.7,5.7-6.1c2.5-1.4,5.4-2.2,8.8-2.2c3.6,0,6.7,0.7,9.4,2l-1.7,3.4C766.5,206.5,763.9,205.9,761.4,205.9z"/>
	<path class="st0" d="M819.6,237h-4v-16.1h-18V237h-4v-34.2h4v14.6h18v-14.6h4V237z"/>
	<path class="st0" d="M845.6,237v-34.2h4V237H845.6z"/>
	<path class="st0" d="M902.3,237h-4.5l-18.7-28.7h-0.2c0.2,3.4,0.4,6.5,0.4,9.3V237h-3.7v-34.2h4.5l18.7,28.6h0.2
		c0-0.4-0.1-1.8-0.2-4.1c-0.1-2.3-0.1-3.9-0.1-4.9v-19.6h3.7V237H902.3z"/>
	<path class="st0" d="M947.5,237h-19.1v-34.2h19.1v3.5h-15.1v11h14.2v3.5h-14.2v12.6h15.1V237z"/>
	<path class="st0" d="M991,227.9c0,3-1.1,5.4-3.3,7c-2.2,1.7-5.2,2.5-8.9,2.5c-4.1,0-7.2-0.5-9.4-1.6V232c1.4,0.6,2.9,1.1,4.6,1.4
		c1.7,0.3,3.3,0.5,4.9,0.5c2.7,0,4.7-0.5,6-1.5s2-2.4,2-4.2c0-1.2-0.2-2.2-0.7-2.9c-0.5-0.8-1.3-1.5-2.4-2.1
		c-1.1-0.6-2.8-1.4-5.1-2.2c-3.2-1.1-5.5-2.5-6.8-4c-1.4-1.6-2-3.6-2-6.1c0-2.6,1-4.7,3-6.3s4.6-2.3,7.9-2.3c3.4,0,6.5,0.6,9.4,1.9
		l-1.2,3.5c-2.8-1.2-5.6-1.8-8.2-1.8c-2.1,0-3.8,0.5-4.9,1.4c-1.2,0.9-1.8,2.2-1.8,3.8c0,1.2,0.2,2.2,0.7,2.9
		c0.4,0.8,1.2,1.5,2.2,2.1s2.6,1.3,4.8,2.1c3.6,1.3,6.1,2.7,7.4,4.1C990.3,223.7,991,225.6,991,227.9z"/>
</g>
</svg>
